<svg width="637" height="215" viewBox="0 0 637 215" fill="none" xmlns="http://www.w3.org/2000/svg">
<path d="M403.674 52.6C403.504 52.58 403.374 52.47 403.374 52.3C403.374 52.13 403.504 52 403.674 52H584.484V161.76C543.014 103.19 478.174 62.4 403.674 52.6Z" fill="#FF5515"></path>
<path d="M554.654 115.96C555.874 97.8904 555.484 87.3404 558.574 84.4804C561.434 81.8304 566.594 81.1103 575.364 80.4704C556.124 78.2504 556.584 78.8204 554.654 60.1104C552.724 78.8104 553.184 78.2404 533.944 80.4704C542.704 81.1103 547.864 81.8304 550.734 84.4804C553.824 87.3504 553.434 97.9004 554.654 115.96Z" fill="white"></path>
<path d="M602.573 55.56C603.623 56.6 604.153 57.86 604.153 59.33C604.153 60.8 603.633 62.03 602.593 63.07C601.553 64.11 600.303 64.64 598.843 64.64C597.383 64.64 596.103 64.12 595.053 63.06C594.013 62.01 593.483 60.77 593.483 59.33C593.483 57.89 594.003 56.63 595.053 55.58C596.103 54.53 597.353 54 598.823 54C600.293 54 601.513 54.52 602.563 55.56H602.573ZM602.163 62.66C603.083 61.74 603.543 60.62 603.543 59.31C603.543 58 603.083 56.91 602.153 55.99C601.223 55.07 600.123 54.6 598.843 54.6C597.563 54.6 596.423 55.07 595.503 56C594.573 56.93 594.103 58.04 594.103 59.33C594.103 60.62 594.573 61.74 595.503 62.66C596.443 63.58 597.553 64.04 598.843 64.04C600.133 64.04 601.233 63.58 602.153 62.66H602.163ZM596.503 56.33H599.053C599.713 56.33 600.223 56.47 600.583 56.76C600.943 57.04 601.123 57.44 601.123 57.95C601.123 58.37 600.973 58.72 600.673 59.01C600.373 59.3 599.973 59.48 599.483 59.55C599.733 59.63 599.933 59.75 600.093 59.9C600.253 60.05 600.413 60.25 600.583 60.51L601.723 62.25H600.333L599.443 60.76C599.193 60.35 598.993 60.1 598.833 60.01C598.673 59.92 598.463 59.88 598.183 59.88H597.703V62.25H596.503V56.33ZM598.543 59.06C598.923 59.06 599.233 58.98 599.463 58.82C599.703 58.66 599.813 58.41 599.813 58.08C599.813 57.46 599.403 57.15 598.583 57.15H597.703V59.05H598.543V59.06Z" fill="#112233"></path>
<path d="M173.374 120.68V159.74H184.174V127.95C187.814 124.83 190.414 125.87 197.574 131.79L201.934 122.02C199.754 121.09 196.944 120.05 192.894 120.05C188.844 120.05 185.834 122.02 184.374 123.79L183.854 124.41L183.754 124.31L183.854 120.67H173.364L173.374 120.68ZM217.114 100.01H206.304V159.75H217.114V100.01ZM124.574 140.22C124.574 151.13 132.674 160.17 145.764 160.17C158.854 160.17 166.954 151.13 166.954 140.22C166.954 129.31 158.854 120.27 145.764 120.27C132.674 120.27 124.574 129.31 124.574 140.22ZM353.834 120.68H343.034V159.74H353.834V120.68ZM349.784 103.03C346.564 103.03 344.064 105.52 344.064 108.75C344.064 111.98 346.554 114.46 349.784 114.46C353.014 114.46 355.494 111.97 355.494 108.75C355.494 105.53 353.004 103.03 349.784 103.03ZM360.564 131.39C359.524 146.25 381.344 142.71 380.724 151.75C380.414 155.38 377.294 156.63 373.974 156.53C368.574 156.11 365.244 153 362.334 149.57L359.114 156.74C363.474 159.23 368.254 160.48 372.414 160.79C381.764 161.41 389.664 157.36 390.174 148.32C391.104 134.3 368.564 136.06 368.984 128.89C369.194 125.77 372.724 124.22 376.354 124.42C380.094 124.73 383.004 126.81 386.224 129.72L389.134 123.28C385.084 121.51 381.234 120.68 377.814 120.37C367.734 119.75 360.984 125.04 360.564 131.38M243.054 160.58C248.144 160.58 252.304 158.81 256.044 155.9L256.254 156V159.74H266.224V100H255.414V123.79C252.404 121.5 247.834 120.05 243.154 120.05C237.234 120.05 223.104 123.69 223.104 140.83C223.104 153.61 234.324 160.57 243.054 160.57M313.524 159.75H318.094L340.954 107.29H335.034L319.144 144.17L303.454 107.29H290.364L313.524 159.75ZM504.844 159.75V138.25C504.844 123.7 493.734 120.07 487.184 120.07C482.504 120.07 478.554 121.84 474.614 124.54L474.404 124.43V120.69H464.434V159.75H475.234V128.27C478.454 125.46 481.574 124.32 484.274 124.32C489.994 124.32 493.934 129.83 493.934 135.85V159.74H504.844V159.75ZM90.2935 112.27L78.0335 143.95L64.9435 107.49H52.3735L71.8035 159.64H77.7235L90.2935 127.44L102.764 159.64H108.684L128.114 107.59H122.194L108.584 143.95L96.4335 112.27H90.2935ZM155.534 140.22C155.534 149.26 152.524 156.42 145.774 156.42C139.024 156.42 136.004 149.25 136.004 140.22C136.004 131.19 139.014 124.01 145.774 124.01C152.534 124.01 155.534 131.18 155.534 140.22ZM415.054 140.22C415.054 151.13 423.154 160.17 436.244 160.17C449.334 160.17 457.434 151.13 457.434 140.22C457.434 129.31 449.334 120.27 436.244 120.27C423.154 120.27 415.054 129.31 415.054 140.22ZM446.014 140.22C446.014 149.26 443.004 156.42 436.244 156.42C429.484 156.42 426.474 149.25 426.474 140.22C426.474 131.19 429.484 124.01 436.244 124.01C443.004 124.01 446.014 131.18 446.014 140.22ZM255.414 128.48V152.06C252.614 154.45 250.014 156.22 246.064 156.22C241.284 156.22 235.054 152.17 235.054 140.43C235.054 127.76 244.924 118.62 255.414 128.48Z" fill="#112233"></path>
<path d="M407.974 120.68H397.174V159.74H407.974V120.68Z" fill="#112233"></path>
<path d="M402.924 103.03C399.704 103.03 397.204 105.52 397.204 108.75C397.204 111.98 399.694 114.46 402.924 114.46C406.154 114.46 408.634 111.97 408.634 108.75C408.634 105.53 406.144 103.03 402.924 103.03Z" fill="#112233"></path>
</svg>